<?xml version="1.0" encoding="utf-8"?>
<!-- Generator: Adobe Illustrator 16.0.0, SVG Export Plug-In . SVG Version: 6.00 Build 0)  -->
<!DOCTYPE svg PUBLIC "-//W3C//DTD SVG 1.1//EN" "http://www.w3.org/Graphics/SVG/1.1/DTD/svg11.dtd">
<svg version="1.1" id="Layer_1" xmlns="http://www.w3.org/2000/svg" xmlns:xlink="http://www.w3.org/1999/xlink" x="0px" y="0px"
	 width="113.39px" height="113.39px" viewBox="0 0 113.39 113.39" enable-background="new 0 0 113.39 113.39" xml:space="preserve">
<polygon fill="#14489E" points="0.031,26.005 10.223,8.507 42.044,54.82 "/>
<polygon fill="#5B9CD4" points="10.195,8.474 14.059,8.474 56.685,54.787 42.016,54.787 "/>
<polygon fill="#14489E" points="113.365,25.972 103.173,8.474 71.354,54.787 "/>
<polygon fill="#5B9CD4" points="103.174,8.474 99.31,8.474 56.685,54.787 71.354,54.787 "/>
<polygon fill="#270B42" points="0.003,83.604 10.195,101.102 42.017,54.787 "/>
<polygon fill="#14489E" points="10.195,101.102 14.06,101.102 56.685,54.787 42.017,54.787 "/>
<polygon fill="#270B42" points="113.367,83.604 103.175,101.102 71.354,54.787 "/>
<polygon fill="#14489E" points="103.175,101.102 99.311,101.102 56.685,54.787 71.354,54.787 "/>
</svg>
